<svg width="7" height="26" viewBox="0 0 7 26" fill="none" xmlns="http://www.w3.org/2000/svg">
<path d="M3.5 11.8437C4.32843 11.8437 5 12.4733 5 13.25C5 14.0267 4.32843 14.6562 3.5 14.6562C2.67157 14.6562 2 14.0267 2 13.25C2 12.4733 2.67157 11.8437 3.5 11.8437Z" stroke="black" strokeWidth="3" strokeLinecap="round" strokeLinejoin="round"/>
<path d="M3.5 21.6875C4.32843 21.6875 5 22.3171 5 23.0937C5 23.8704 4.32843 24.5 3.5 24.5C2.67157 24.5 2 23.8704 2 23.0938C2 22.3171 2.67157 21.6875 3.5 21.6875Z" stroke="black" strokeWidth="3" strokeLinecap="round" strokeLinejoin="round"/>
<path d="M3.5 2C4.32843 2 5 2.6296 5 3.40625C5 4.1829 4.32843 4.8125 3.5 4.8125C2.67157 4.8125 2 4.1829 2 3.40625C2 2.6296 2.67157 2 3.5 2Z" stroke="black" strokeWidth="3" strokeLinecap="round" strokeLinejoin="round"/>
</svg>
