<svg width="375" height="58" viewBox="0 0 375 58" fill="none" xmlns="http://www.w3.org/2000/svg">
<path d="M32 7H37C38.3261 7 39.5979 7.52678 40.5355 8.46447C41.4732 9.40215 42 10.6739 42 12V47C42 48.3261 41.4732 49.5979 40.5355 50.5355C39.5979 51.4732 38.3261 52 37 52H7C5.67392 52 4.40215 51.4732 3.46447 50.5355C2.52678 49.5979 2 48.3261 2 47V12C2 10.6739 2.52678 9.40215 3.46447 8.46447C4.40215 7.52678 5.67392 7 7 7H12M14.5 2H29.5C30.8807 2 32 3.11929 32 4.5V9.5C32 10.8807 30.8807 12 29.5 12H14.5C13.1193 12 12 10.8807 12 9.5V4.5C12 3.11929 13.1193 2 14.5 2Z" stroke="#5D1B2A" stroke-width="4" stroke-linecap="round" stroke-linejoin="round"/>
<path d="M30.0715 24.1281C29.6015 23.658 29.0436 23.285 28.4295 23.0306C27.8154 22.7761 27.1572 22.6452 26.4925 22.6452C25.8278 22.6452 25.1695 22.7761 24.5554 23.0306C23.9413 23.285 23.3834 23.658 22.9135 24.1281L21.9382 25.1034L20.963 24.1281C20.0138 23.1789 18.7264 22.6456 17.384 22.6456C16.0416 22.6456 14.7542 23.1789 13.805 24.1281C12.8558 25.0773 12.3225 26.3647 12.3225 27.7071C12.3225 29.0495 12.8558 30.3369 13.805 31.2861L21.9382 39.4194L30.0715 31.2861C30.5416 30.8162 30.9146 30.2582 31.169 29.6441C31.4235 29.03 31.5544 28.3718 31.5544 27.7071C31.5544 27.0424 31.4235 26.3842 31.169 25.7701C30.9146 25.156 30.5416 24.598 30.0715 24.1281Z" stroke="#5D1B2A" stroke-width="4" stroke-linecap="round" stroke-linejoin="round"/>
<path d="M75.515 11.249C75.515 11.9792 75.4221 12.6447 75.2363 13.2453C75.0505 13.8416 74.774 14.3558 74.4067 14.7879C74.0437 15.2157 73.5921 15.5463 73.052 15.7796C72.5119 16.013 71.8853 16.1296 71.1723 16.1296C70.4378 16.1296 69.7961 16.013 69.2473 15.7796C68.7028 15.5463 68.2491 15.2136 67.8862 14.7815C67.5275 14.3493 67.2574 13.833 67.076 13.2323C66.8988 12.6317 66.8102 11.9663 66.8102 11.236C66.8102 10.2681 66.9701 9.41899 67.2898 8.68872C67.6096 7.95846 68.0936 7.39024 68.7417 6.98405C69.3942 6.57787 70.2109 6.37478 71.1918 6.37478C72.1295 6.37478 72.9181 6.57571 73.5576 6.97757C74.2014 7.37943 74.6875 7.9455 75.0159 8.67576C75.3487 9.4017 75.515 10.2594 75.515 11.249ZM67.9704 11.249C67.9704 12.0527 68.0849 12.7484 68.3139 13.3361C68.543 13.9237 68.893 14.3774 69.364 14.6972C69.8393 15.017 70.4421 15.1768 71.1723 15.1768C71.9069 15.1768 72.5076 15.017 72.9742 14.6972C73.4452 14.3774 73.7931 13.9237 74.0178 13.3361C74.2425 12.7484 74.3548 12.0527 74.3548 11.249C74.3548 10.0261 74.0977 9.07114 73.5835 8.38409C73.0736 7.69271 72.2764 7.34702 71.1918 7.34702C70.4572 7.34702 69.8522 7.50474 69.3769 7.82018C68.9016 8.13562 68.5473 8.58502 68.3139 9.16836C68.0849 9.74739 67.9704 10.4409 67.9704 11.249ZM78.5484 16H77.466V5.91458H78.5484V16ZM81.8994 8.89613V16H80.8235V8.89613H81.8994ZM81.3744 6.23867C81.5516 6.23867 81.7028 6.297 81.8281 6.41367C81.9578 6.52602 82.0226 6.70318 82.0226 6.94516C82.0226 7.18282 81.9578 7.35999 81.8281 7.47666C81.7028 7.59333 81.5516 7.65166 81.3744 7.65166C81.1886 7.65166 81.0331 7.59333 80.9077 7.47666C80.7868 7.35999 80.7263 7.18282 80.7263 6.94516C80.7263 6.70318 80.7868 6.52602 80.9077 6.41367C81.0331 6.297 81.1886 6.23867 81.3744 6.23867ZM85.743 16L83.0467 8.89613H84.2004L85.7625 13.1935C85.8705 13.4873 85.9807 13.8114 86.0931 14.1657C86.2054 14.52 86.2832 14.8052 86.3264 15.0213H86.3718C86.4236 14.8052 86.51 14.52 86.631 14.1657C86.752 13.807 86.8622 13.483 86.9616 13.1935L88.5237 8.89613H89.6774L86.9746 16H85.743ZM91.8941 8.89613V16H90.8182V8.89613H91.8941ZM91.3691 6.23867C91.5463 6.23867 91.6975 6.297 91.8228 6.41367C91.9524 6.52602 92.0173 6.70318 92.0173 6.94516C92.0173 7.18282 91.9524 7.35999 91.8228 7.47666C91.6975 7.59333 91.5463 7.65166 91.3691 7.65166C91.1833 7.65166 91.0277 7.59333 90.9024 7.47666C90.7814 7.35999 90.7209 7.18282 90.7209 6.94516C90.7209 6.70318 90.7814 6.52602 90.9024 6.41367C91.0277 6.297 91.1833 6.23867 91.3691 6.23867ZM96.8331 8.77946C97.68 8.77946 98.3088 8.96959 98.7193 9.34985C99.1298 9.7301 99.335 10.3372 99.335 11.1712V16H98.5507L98.3433 14.95H98.2915C98.0927 15.2092 97.8853 15.4275 97.6692 15.6046C97.4532 15.7775 97.2026 15.9093 96.9174 16C96.6365 16.0864 96.2908 16.1296 95.8803 16.1296C95.4482 16.1296 95.0636 16.054 94.7266 15.9028C94.3939 15.7515 94.1303 15.5225 93.9358 15.2157C93.7457 14.9089 93.6506 14.52 93.6506 14.049C93.6506 13.3404 93.9315 12.7959 94.4932 12.4157C95.055 12.0354 95.9106 11.828 97.06 11.7934L98.285 11.7416V11.3073C98.285 10.6937 98.1532 10.2638 97.8896 10.0175C97.626 9.77115 97.2544 9.648 96.7748 9.648C96.4032 9.648 96.0488 9.70202 95.7118 9.81004C95.3747 9.91807 95.055 10.0455 94.7525 10.1925L94.4219 9.37577C94.7417 9.21157 95.109 9.07114 95.5238 8.95447C95.9386 8.8378 96.3751 8.77946 96.8331 8.77946ZM98.272 12.4999L97.1896 12.5453C96.3038 12.5799 95.6794 12.7246 95.3164 12.9796C94.9534 13.2345 94.772 13.5953 94.772 14.062C94.772 14.4682 94.8951 14.7685 95.1414 14.9629C95.3877 15.1574 95.714 15.2546 96.1201 15.2546C96.751 15.2546 97.2674 15.0796 97.6692 14.7296C98.0711 14.3796 98.272 13.8546 98.272 13.1546V12.4999ZM108.895 16H107.794V11.5342H102.816V16H101.714V6.52386H102.816V10.5619H107.794V6.52386H108.895V16ZM114.074 8.7665C114.679 8.7665 115.198 8.90046 115.63 9.16836C116.062 9.43627 116.393 9.8122 116.622 10.2962C116.851 10.7758 116.965 11.3375 116.965 11.9814V12.649H112.058C112.071 13.483 112.279 14.1182 112.681 14.5546C113.083 14.991 113.649 15.2092 114.379 15.2092C114.828 15.2092 115.226 15.1682 115.572 15.0861C115.917 15.004 116.276 14.883 116.647 14.7231V15.6694C116.289 15.8293 115.932 15.946 115.578 16.0194C115.228 16.0929 114.813 16.1296 114.334 16.1296C113.651 16.1296 113.054 15.9914 112.545 15.7148C112.039 15.4339 111.646 15.0234 111.365 14.4833C111.084 13.9432 110.944 13.282 110.944 12.4999C110.944 11.7351 111.071 11.074 111.326 10.5165C111.585 9.9548 111.948 9.52269 112.415 9.22022C112.886 8.91774 113.439 8.7665 114.074 8.7665ZM114.061 9.648C113.487 9.648 113.029 9.83597 112.687 10.2119C112.346 10.5878 112.143 11.1129 112.078 11.7869H115.837C115.833 11.3635 115.766 10.9919 115.636 10.6721C115.511 10.348 115.319 10.0974 115.059 9.92023C114.8 9.73875 114.467 9.648 114.061 9.648ZM121.45 8.77946C122.297 8.77946 122.926 8.96959 123.336 9.34985C123.747 9.7301 123.952 10.3372 123.952 11.1712V16H123.168L122.961 14.95H122.909C122.71 15.2092 122.503 15.4275 122.286 15.6046C122.07 15.7775 121.82 15.9093 121.535 16C121.254 16.0864 120.908 16.1296 120.498 16.1296C120.065 16.1296 119.681 16.054 119.344 15.9028C119.011 15.7515 118.747 15.5225 118.553 15.2157C118.363 14.9089 118.268 14.52 118.268 14.049C118.268 13.3404 118.549 12.7959 119.11 12.4157C119.672 12.0354 120.528 11.828 121.677 11.7934L122.902 11.7416V11.3073C122.902 10.6937 122.77 10.2638 122.507 10.0175C122.243 9.77115 121.872 9.648 121.392 9.648C121.02 9.648 120.666 9.70202 120.329 9.81004C119.992 9.91807 119.672 10.0455 119.37 10.1925L119.039 9.37577C119.359 9.21157 119.726 9.07114 120.141 8.95447C120.556 8.8378 120.992 8.77946 121.45 8.77946ZM122.889 12.4999L121.807 12.5453C120.921 12.5799 120.297 12.7246 119.934 12.9796C119.571 13.2345 119.389 13.5953 119.389 14.062C119.389 14.4682 119.512 14.7685 119.759 14.9629C120.005 15.1574 120.331 15.2546 120.737 15.2546C121.368 15.2546 121.885 15.0796 122.286 14.7296C122.688 14.3796 122.889 13.8546 122.889 13.1546V12.4999ZM127.251 16H126.169V5.91458H127.251V16ZM131.821 15.2481C131.998 15.2481 132.18 15.233 132.365 15.2028C132.551 15.1725 132.702 15.1358 132.819 15.0926V15.9287C132.694 15.9849 132.519 16.0324 132.294 16.0713C132.074 16.1102 131.858 16.1296 131.646 16.1296C131.27 16.1296 130.929 16.0648 130.622 15.9352C130.315 15.8012 130.069 15.5765 129.883 15.2611C129.701 14.9457 129.611 14.5092 129.611 13.9518V9.73875H128.6V9.21373L129.617 8.79243L130.045 7.2498H130.693V8.89613H132.774V9.73875H130.693V13.9194C130.693 14.3645 130.795 14.6972 130.998 14.9176C131.205 15.1379 131.48 15.2481 131.821 15.2481ZM135.334 5.91458V8.92854C135.334 9.10139 135.33 9.27639 135.321 9.45355C135.312 9.6264 135.297 9.78628 135.276 9.93319H135.347C135.494 9.68257 135.68 9.473 135.904 9.30448C136.133 9.13163 136.393 9.002 136.682 8.91558C136.972 8.82484 137.278 8.77946 137.603 8.77946C138.173 8.77946 138.648 8.87021 139.029 9.05169C139.413 9.23318 139.7 9.51405 139.891 9.89431C140.085 10.2746 140.182 10.7672 140.182 11.3721V16H139.119V11.4434C139.119 10.8514 138.983 10.4085 138.711 10.1147C138.443 9.82085 138.03 9.67393 137.473 9.67393C136.946 9.67393 136.524 9.77548 136.209 9.97857C135.898 10.1773 135.673 10.4712 135.535 10.8601C135.401 11.249 135.334 11.7243 135.334 12.286V16H134.258V5.91458H135.334Z" fill="black"/>
<path d="M81.6568 49.4972H79.3882L70.1634 35.2839H70.0709C70.094 35.662 70.121 36.0941 70.1519 36.5803C70.1827 37.0587 70.2059 37.5718 70.2213 38.1196C70.2445 38.6598 70.256 39.2115 70.256 39.7748V49.4972H68.4273V32.5755H70.6843L79.8743 46.7425H79.9553C79.9399 46.4725 79.9206 46.0905 79.8975 45.5967C79.8743 45.0951 79.8512 44.5588 79.828 43.9878C79.8126 43.4091 79.8049 42.8728 79.8049 42.379V32.5755H81.6568V49.4972ZM90.731 36.6034C92.2434 36.6034 93.3661 36.9429 94.0992 37.622C94.8322 38.301 95.1987 39.3851 95.1987 40.8743V49.4972H93.7982L93.4279 47.6222H93.3353C92.9803 48.0852 92.6099 48.4748 92.2241 48.7912C91.8383 49.0998 91.3908 49.3352 90.8815 49.4972C90.38 49.6515 89.7627 49.7287 89.0296 49.7287C88.258 49.7287 87.5712 49.5937 86.9694 49.3236C86.3752 49.0535 85.9045 48.6446 85.5573 48.0967C85.2178 47.5489 85.048 46.8544 85.048 46.0133C85.048 44.7479 85.5496 43.7756 86.5527 43.0966C87.5558 42.4176 89.0836 42.0472 91.1361 41.9855L93.3237 41.8929V41.1174C93.3237 40.0217 93.0884 39.2539 92.6177 38.8141C92.147 38.3743 91.4834 38.1544 90.6269 38.1544C89.9633 38.1544 89.3305 38.2508 88.7287 38.4437C88.1268 38.6366 87.5558 38.8643 87.0157 39.1266L86.4254 37.6682C86.9964 37.375 87.6523 37.1243 88.393 36.9159C89.1338 36.7076 89.9131 36.6034 90.731 36.6034ZM93.3005 43.2471L91.3676 43.3281C89.7858 43.3898 88.6708 43.6483 88.0226 44.1036C87.3745 44.5588 87.0504 45.2031 87.0504 46.0365C87.0504 46.7618 87.2703 47.2981 87.7101 47.6453C88.15 47.9926 88.7325 48.1662 89.4579 48.1662C90.5844 48.1662 91.5065 47.8537 92.2241 47.2287C92.9417 46.6036 93.3005 45.6661 93.3005 44.4161V43.2471ZM101.947 49.4972L97.1317 36.8117H99.1919L101.981 44.4855C102.174 45.0102 102.371 45.589 102.572 46.2217C102.772 46.8544 102.911 47.3637 102.988 47.7495H103.069C103.162 47.3637 103.316 46.8544 103.532 46.2217C103.748 45.5812 103.945 45.0025 104.123 44.4855L106.912 36.8117H108.972L104.146 49.4972H101.947ZM112.931 36.8117V49.4972H111.009V36.8117H112.931ZM111.993 32.0663C112.309 32.0663 112.58 32.1704 112.803 32.3788C113.035 32.5794 113.151 32.8958 113.151 33.3279C113.151 33.7523 113.035 34.0686 112.803 34.277C112.58 34.4853 112.309 34.5895 111.993 34.5895C111.661 34.5895 111.384 34.4853 111.16 34.277C110.944 34.0686 110.836 33.7523 110.836 33.3279C110.836 32.8958 110.944 32.5794 111.16 32.3788C111.384 32.1704 111.661 32.0663 111.993 32.0663ZM120.547 55.1918C118.88 55.1918 117.595 54.8793 116.692 54.2543C115.789 53.637 115.338 52.7689 115.338 51.65C115.338 50.8553 115.589 50.1763 116.09 49.613C116.6 49.0497 117.302 48.6754 118.197 48.4903C117.865 48.3359 117.58 48.1044 117.34 47.7958C117.109 47.4871 116.993 47.1322 116.993 46.731C116.993 46.268 117.121 45.8629 117.375 45.5157C117.638 45.1607 118.035 44.8212 118.567 44.4971C117.904 44.227 117.364 43.7718 116.947 43.1313C116.538 42.4832 116.333 41.7308 116.333 40.8743C116.333 39.9638 116.523 39.1883 116.901 38.5479C117.279 37.8997 117.827 37.4059 118.544 37.0664C119.262 36.7269 120.13 36.5571 121.148 36.5571C121.372 36.5571 121.596 36.5687 121.82 36.5918C122.051 36.6073 122.271 36.6343 122.479 36.6729C122.688 36.7037 122.869 36.7423 123.023 36.7886H127.375V38.0271L125.037 38.3164C125.269 38.6173 125.462 38.98 125.616 39.4044C125.77 39.8288 125.848 40.2995 125.848 40.8165C125.848 42.0819 125.419 43.0889 124.563 43.8374C123.706 44.5781 122.53 44.9485 121.033 44.9485C120.678 44.9485 120.315 44.9176 119.945 44.8559C119.567 45.0643 119.277 45.2957 119.077 45.5504C118.884 45.805 118.787 46.0982 118.787 46.43C118.787 46.6769 118.861 46.8737 119.007 47.0203C119.161 47.1669 119.381 47.2749 119.667 47.3444C119.952 47.4061 120.296 47.437 120.697 47.437H122.931C124.312 47.437 125.369 47.7263 126.102 48.3051C126.843 48.8838 127.213 49.7287 127.213 50.8398C127.213 52.2442 126.642 53.3206 125.5 54.0691C124.358 54.8176 122.707 55.1918 120.547 55.1918ZM120.604 53.6871C121.654 53.6871 122.522 53.5791 123.209 53.3631C123.903 53.1547 124.42 52.8499 124.76 52.4487C125.107 52.0552 125.28 51.5845 125.28 51.0366C125.28 50.5273 125.165 50.1415 124.933 49.8792C124.702 49.6245 124.362 49.4548 123.915 49.3699C123.467 49.2773 122.919 49.231 122.271 49.231H120.072C119.501 49.231 119.003 49.3197 118.579 49.4972C118.155 49.6747 117.827 49.937 117.595 50.2843C117.371 50.6315 117.259 51.0636 117.259 51.5806C117.259 52.2673 117.549 52.7882 118.128 53.1431C118.706 53.5058 119.532 53.6871 120.604 53.6871ZM121.102 43.548C122.02 43.548 122.711 43.3165 123.174 42.8536C123.637 42.3906 123.868 41.7154 123.868 40.828C123.868 39.8789 123.633 39.1691 123.162 38.6984C122.692 38.22 121.997 37.9808 121.079 37.9808C120.199 37.9808 119.52 38.2277 119.042 38.7215C118.571 39.2076 118.336 39.9214 118.336 40.8628C118.336 41.727 118.575 42.3906 119.053 42.8536C119.532 43.3165 120.215 43.548 121.102 43.548ZM134.621 36.6034C136.133 36.6034 137.256 36.9429 137.989 37.622C138.722 38.301 139.089 39.3851 139.089 40.8743V49.4972H137.688L137.318 47.6222H137.225C136.87 48.0852 136.5 48.4748 136.114 48.7912C135.728 49.0998 135.281 49.3352 134.771 49.4972C134.27 49.6515 133.653 49.7287 132.92 49.7287C132.148 49.7287 131.461 49.5937 130.859 49.3236C130.265 49.0535 129.794 48.6446 129.447 48.0967C129.108 47.5489 128.938 46.8544 128.938 46.0133C128.938 44.7479 129.439 43.7756 130.443 43.0966C131.446 42.4176 132.974 42.0472 135.026 41.9855L137.214 41.8929V41.1174C137.214 40.0217 136.978 39.2539 136.508 38.8141C136.037 38.3743 135.373 38.1544 134.517 38.1544C133.853 38.1544 133.22 38.2508 132.619 38.4437C132.017 38.6366 131.446 38.8643 130.906 39.1266L130.315 37.6682C130.886 37.375 131.542 37.1243 132.283 36.9159C133.024 36.7076 133.803 36.6034 134.621 36.6034ZM137.19 43.2471L135.258 43.3281C133.676 43.3898 132.561 43.6483 131.913 44.1036C131.264 44.5588 130.94 45.2031 130.94 46.0365C130.94 46.7618 131.16 47.2981 131.6 47.6453C132.04 47.9926 132.622 48.1662 133.348 48.1662C134.474 48.1662 135.396 47.8537 136.114 47.2287C136.832 46.6036 137.19 45.6661 137.19 44.4161V43.2471ZM147.144 48.1546C147.461 48.1546 147.785 48.1276 148.117 48.0736C148.448 48.0196 148.718 47.954 148.927 47.8768V49.3699C148.703 49.4702 148.391 49.5551 147.989 49.6245C147.596 49.694 147.21 49.7287 146.832 49.7287C146.161 49.7287 145.551 49.613 145.003 49.3815C144.455 49.1423 144.015 48.741 143.684 48.1777C143.36 47.6145 143.198 46.8351 143.198 45.8397V38.3164H141.392V37.3789L143.209 36.6266L143.973 33.8719H145.13V36.8117H148.846V38.3164H145.13V45.7819C145.13 46.5766 145.312 47.1708 145.674 47.5643C146.045 47.9578 146.535 48.1546 147.144 48.1546ZM162.434 43.1313C162.434 44.173 162.299 45.1028 162.029 45.9208C161.759 46.7387 161.369 47.4293 160.86 47.9926C160.351 48.5558 159.733 48.988 159.008 49.2889C158.29 49.5821 157.476 49.7287 156.566 49.7287C155.717 49.7287 154.938 49.5821 154.228 49.2889C153.526 48.988 152.916 48.5558 152.399 47.9926C151.89 47.4293 151.492 46.7387 151.207 45.9208C150.929 45.1028 150.79 44.173 150.79 43.1313C150.79 41.7424 151.026 40.5618 151.496 39.5896C151.967 38.6096 152.638 37.865 153.51 37.3557C154.39 36.8388 155.435 36.5803 156.647 36.5803C157.804 36.5803 158.815 36.8388 159.679 37.3557C160.551 37.8727 161.226 38.6212 161.705 39.6012C162.191 40.5734 162.434 41.7501 162.434 43.1313ZM152.781 43.1313C152.781 44.1499 152.916 45.0334 153.186 45.7819C153.456 46.5303 153.873 47.1091 154.436 47.518C154.999 47.927 155.725 48.1315 156.612 48.1315C157.492 48.1315 158.213 47.927 158.777 47.518C159.348 47.1091 159.768 46.5303 160.038 45.7819C160.308 45.0334 160.443 44.1499 160.443 43.1313C160.443 42.1205 160.308 41.2486 160.038 40.5155C159.768 39.7748 159.351 39.2038 158.788 38.8025C158.225 38.4013 157.496 38.2007 156.601 38.2007C155.281 38.2007 154.313 38.6366 153.695 39.5086C153.086 40.3805 152.781 41.5881 152.781 43.1313ZM171.52 36.5803C171.775 36.5803 172.041 36.5957 172.319 36.6266C172.596 36.6497 172.843 36.6844 173.059 36.7307L172.816 38.5132C172.608 38.4592 172.376 38.4167 172.122 38.3859C171.867 38.355 171.628 38.3396 171.404 38.3396C170.895 38.3396 170.413 38.4437 169.957 38.6521C169.51 38.8527 169.116 39.1459 168.777 39.5317C168.437 39.9098 168.171 40.3689 167.978 40.9091C167.785 41.4415 167.689 42.0356 167.689 42.6915V49.4972H165.756V36.8117H167.353L167.561 39.1498H167.643C167.905 38.6791 168.221 38.2508 168.592 37.865C168.962 37.4715 169.39 37.159 169.876 36.9275C170.37 36.696 170.918 36.5803 171.52 36.5803Z" fill="black"/>
</svg>
