<svg width="36" height="8" viewBox="0 0 36 8" fill="none" xmlns="http://www.w3.org/2000/svg">
<path d="M20 4C20 2.89543 19.1046 2 18 2C16.8954 2 16 2.89543 16 4C16 5.10457 16.8954 6 18 6C19.1046 6 20 5.10457 20 4Z" stroke="black" strokeWidth="4" strokeLinecap="round" strokeLinejoin="round"/>
<path d="M6 4C6 2.89543 5.10457 2 4 2C2.89543 2 2 2.89543 2 4C2 5.10457 2.89543 6 4 6C5.10457 6 6 5.10457 6 4Z" stroke="black" strokeWidth="4" strokeLinecap="round" strokeLinejoin="round"/>
<path d="M34 4C34 2.89543 33.1046 2 32 2C30.8954 2 30 2.89543 30 4C30 5.10457 30.8954 6 32 6C33.1046 6 34 5.10457 34 4Z" stroke="black" strokeWidth="4" strokeLinecap="round" strokeLinejoin="round"/>
</svg>
